# Blender 4.0.0
# www.blender.org
o Lampara.003
v 2.850000 0.098253 -2.850000
v -2.850000 0.098253 -2.850000
v 2.850000 0.098249 2.850000
v -2.850000 0.098249 2.850000
v 2.850000 0.048253 -2.850000
v -2.850000 0.048253 -2.850000
v 2.850000 0.048249 2.850000
v -2.850000 0.048249 2.850000
v 3.050000 0.141070 -3.049999
v 3.050000 0.141067 3.050000
v -3.050000 0.141073 -3.049999
v -3.050000 0.141069 3.050000
v 3.250000 0.141070 -3.250000
v 3.250000 0.141067 3.250000
v -3.250000 0.141069 3.250000
v -3.250000 0.141073 -3.250000
v -3.000000 0.112544 -3.000000
v 3.050000 0.112542 -3.049999
v 3.050000 0.112539 3.050000
v -3.050000 0.112541 3.050000
v -3.050000 0.112544 -3.049999
v 3.000000 0.112542 -3.000000
v -3.000000 0.112541 3.000000
v -2.850000 0.139619 -2.849999
v -2.850000 0.139616 2.850000
v 3.000000 0.112539 3.000000
v 2.850000 0.139614 2.850000
v 2.850000 0.139617 -2.849999
v -3.000000 0.139620 -3.000000
v 3.000000 0.139617 -3.000000
v -3.000000 0.139616 3.000000
v 3.000000 0.139614 3.000000
v -2.850000 -0.174283 -2.849999
v 2.850000 -0.174286 -2.849999
v -2.850000 -0.174287 2.850000
v 2.850000 -0.174289 2.850000
v -3.250000 -0.174287 3.250000
v -3.250000 -0.174283 -3.250000
v 3.250000 -0.174289 3.250000
v 3.250000 -0.174286 -3.250000
vt 0.925900 0.506707
vt 0.925900 0.927712
vt 0.504896 0.927712
vt 0.504896 0.506707
vt 0.026544 0.028356
vt 0.447549 0.028356
vt 0.447549 0.449361
vt 0.026544 0.449361
vt 0.425805 0.779133
vt 0.004801 0.779133
vt 0.004801 0.775440
vt 0.425805 0.775440
vt 0.425805 0.790005
vt 0.004801 0.790005
vt 0.004801 0.786312
vt 0.425805 0.786312
vt 0.425805 0.768261
vt 0.004801 0.768262
vt 0.004801 0.764569
vt 0.425805 0.764568
vt 0.460232 0.026544
vt 0.460232 0.447549
vt 0.456539 0.447549
vt 0.456539 0.026544
vt 0.492204 0.003694
vt 0.515496 0.003694
vt 0.515496 0.483787
vt 0.492204 0.483787
vt 0.546299 0.483787
vt 0.523007 0.483787
vt 0.523007 0.003694
vt 0.546299 0.003694
vt 0.483787 0.492204
vt 0.483787 0.515496
vt 0.003694 0.515496
vt 0.003694 0.492204
vt 0.003694 0.546299
vt 0.003694 0.523007
vt 0.483787 0.523007
vt 0.483787 0.546299
vt 0.454796 0.574384
vt 0.004247 0.574384
vt 0.004247 0.572277
vt 0.454796 0.572277
vt 0.469015 0.469015
vt 0.469015 0.018466
vt 0.483787 0.003694
vt 0.483787 0.483787
vt 0.018466 0.018466
vt 0.003694 0.003694
vt 0.018466 0.469015
vt 0.003694 0.483787
vt 0.004247 0.581337
vt 0.454796 0.581337
vt 0.454796 0.583444
vt 0.004247 0.583444
vt 0.004247 0.563217
vt 0.454796 0.563217
vt 0.454796 0.565325
vt 0.004247 0.565324
vt 0.454796 0.556265
vt 0.004247 0.556265
vt 0.004247 0.554158
vt 0.454796 0.554158
vt 0.940327 0.497164
vt 0.497164 0.497164
vt 0.493471 0.493471
vt 0.944020 0.493471
vt 0.497164 0.940327
vt 0.493471 0.944020
vt 0.940327 0.940327
vt 0.944020 0.944020
vt 0.004386 0.614059
vt 0.447549 0.614059
vt 0.447549 0.616059
vt 0.004386 0.616059
vt 0.004386 0.603188
vt 0.447549 0.603187
vt 0.447549 0.605187
vt 0.004386 0.605187
vt 0.447549 0.626931
vt 0.004386 0.626930
vt 0.004386 0.624931
vt 0.447549 0.624931
vt 0.447549 0.594316
vt 0.004386 0.594315
vt 0.004386 0.592316
vt 0.447549 0.592316
vt 0.564482 0.436470
vt 0.985487 0.436470
vt 0.996566 0.447549
vt 0.553403 0.447549
vt 0.564482 0.015465
vt 0.553403 0.004386
vt 0.985487 0.015465
vt 0.996566 0.004386
vt 0.004801 0.734205
vt 0.425805 0.734205
vt 0.425805 0.757390
vt 0.004801 0.757390
vt 0.425805 0.724775
vt 0.004801 0.724775
vt 0.004801 0.701590
vt 0.425805 0.701590
vt 0.425805 0.692160
vt 0.004801 0.692160
vt 0.004801 0.668975
vt 0.425805 0.668975
vt 0.004801 0.636360
vt 0.425805 0.636360
vt 0.425805 0.659545
vt 0.004801 0.659545
s 0
f 3/1 1/2 2/3 4/4
f 7/5 8/6 6/7 5/8
f 3/9 4/10 8/11 7/12
f 2/13 1/14 5/15 6/16
f 4/17 2/18 6/19 8/20
f 1/21 3/22 7/23 5/24
f 40/25 13/26 14/27 39/28
f 39/29 14/30 15/31 37/32
f 37/33 15/34 16/35 38/36
f 38/37 16/38 13/39 40/40
f 9/41 11/42 21/43 18/44
f 9/45 10/46 14/47 13/48
f 10/46 12/49 15/50 14/47
f 12/49 11/51 16/52 15/50
f 11/51 9/45 13/48 16/52
f 12/53 10/54 19/55 20/56
f 11/57 12/58 20/59 21/60
f 10/61 9/62 18/63 19/64
f 22/65 26/66 19/67 18/68
f 26/66 23/69 20/70 19/67
f 23/69 17/71 21/72 20/70
f 17/71 22/65 18/68 21/72
f 23/73 26/74 32/75 31/76
f 17/77 23/78 31/79 29/80
f 22/81 17/82 29/83 30/84
f 26/85 22/86 30/87 32/88
f 24/89 28/90 30/91 29/92
f 25/93 24/89 29/92 31/94
f 27/95 25/93 31/94 32/96
f 28/90 27/95 32/96 30/91
f 25/97 27/98 36/99 35/100
f 28/101 24/102 33/103 34/104
f 27/105 28/106 34/107 36/108
f 24/109 25/110 35/111 33/112
